<mxfile host="app.diagrams.net" agent="Mozilla/5.0 (Windows NT 10.0; Win64; x64) AppleWebKit/537.36 (KHTML, like Gecko) Chrome/128.0.0.0 Safari/537.36 Edg/128.0.0.0" version="24.7.12">
  <diagram id="C5RBs43oDa-KdzZeNtuy" name="Page-1">
    <mxGraphModel dx="316" dy="372" grid="1" gridSize="10" guides="1" tooltips="1" connect="1" arrows="1" fold="1" page="1" pageScale="1" pageWidth="827" pageHeight="1169" math="0" shadow="0">
      <root>
        <mxCell id="WIyWlLk6GJQsqaUBKTNV-0" />
        <mxCell id="WIyWlLk6GJQsqaUBKTNV-1" parent="WIyWlLk6GJQsqaUBKTNV-0" />
        <mxCell id="fgH4f-6RBddXQqdyio11-0" value="Aldea" style="swimlane;fontStyle=1;align=center;verticalAlign=top;childLayout=stackLayout;horizontal=1;startSize=26;horizontalStack=0;resizeParent=1;resizeParentMax=0;resizeLast=0;collapsible=1;marginBottom=0;whiteSpace=wrap;html=1;" vertex="1" parent="WIyWlLk6GJQsqaUBKTNV-1">
          <mxGeometry x="360" y="80" width="200" height="128" as="geometry" />
        </mxCell>
        <mxCell id="fgH4f-6RBddXQqdyio11-1" value="+ nombre:string&lt;div&gt;+ cantNinjas:int&lt;/div&gt;" style="text;strokeColor=none;fillColor=none;align=left;verticalAlign=top;spacingLeft=4;spacingRight=4;overflow=hidden;rotatable=0;points=[[0,0.5],[1,0.5]];portConstraint=eastwest;whiteSpace=wrap;html=1;" vertex="1" parent="fgH4f-6RBddXQqdyio11-0">
          <mxGeometry y="26" width="200" height="34" as="geometry" />
        </mxCell>
        <mxCell id="fgH4f-6RBddXQqdyio11-2" value="" style="line;strokeWidth=1;fillColor=none;align=left;verticalAlign=middle;spacingTop=-1;spacingLeft=3;spacingRight=3;rotatable=0;labelPosition=right;points=[];portConstraint=eastwest;strokeColor=inherit;" vertex="1" parent="fgH4f-6RBddXQqdyio11-0">
          <mxGeometry y="60" width="200" height="8" as="geometry" />
        </mxCell>
        <mxCell id="fgH4f-6RBddXQqdyio11-3" value="+ incorporarNinja()&lt;div&gt;+ rechazarNinja()&lt;/div&gt;" style="text;strokeColor=none;fillColor=none;align=left;verticalAlign=top;spacingLeft=4;spacingRight=4;overflow=hidden;rotatable=0;points=[[0,0.5],[1,0.5]];portConstraint=eastwest;whiteSpace=wrap;html=1;" vertex="1" parent="fgH4f-6RBddXQqdyio11-0">
          <mxGeometry y="68" width="200" height="60" as="geometry" />
        </mxCell>
        <mxCell id="fgH4f-6RBddXQqdyio11-4" value="" style="endArrow=diamondThin;endFill=1;endSize=24;html=1;rounded=0;fontSize=12;curved=1;" edge="1" parent="WIyWlLk6GJQsqaUBKTNV-1">
          <mxGeometry width="160" relative="1" as="geometry">
            <mxPoint x="459.7" y="268" as="sourcePoint" />
            <mxPoint x="459.7" y="208" as="targetPoint" />
          </mxGeometry>
        </mxCell>
        <mxCell id="fgH4f-6RBddXQqdyio11-14" value="Ninja" style="swimlane;fontStyle=1;align=center;verticalAlign=top;childLayout=stackLayout;horizontal=1;startSize=26;horizontalStack=0;resizeParent=1;resizeParentMax=0;resizeLast=0;collapsible=1;marginBottom=0;whiteSpace=wrap;html=1;" vertex="1" parent="WIyWlLk6GJQsqaUBKTNV-1">
          <mxGeometry x="380" y="270" width="160" height="140" as="geometry" />
        </mxCell>
        <mxCell id="fgH4f-6RBddXQqdyio11-15" value="+ nombre:string&lt;div&gt;+ nombreClan: string&lt;/div&gt;&lt;div&gt;+ chakra:string&lt;/div&gt;&lt;div&gt;+ poderes&lt;/div&gt;" style="text;strokeColor=none;fillColor=none;align=left;verticalAlign=top;spacingLeft=4;spacingRight=4;overflow=hidden;rotatable=0;points=[[0,0.5],[1,0.5]];portConstraint=eastwest;whiteSpace=wrap;html=1;" vertex="1" parent="fgH4f-6RBddXQqdyio11-14">
          <mxGeometry y="26" width="160" height="64" as="geometry" />
        </mxCell>
        <mxCell id="fgH4f-6RBddXQqdyio11-16" value="" style="line;strokeWidth=1;fillColor=none;align=left;verticalAlign=middle;spacingTop=-1;spacingLeft=3;spacingRight=3;rotatable=0;labelPosition=right;points=[];portConstraint=eastwest;strokeColor=inherit;" vertex="1" parent="fgH4f-6RBddXQqdyio11-14">
          <mxGeometry y="90" width="160" height="8" as="geometry" />
        </mxCell>
        <mxCell id="fgH4f-6RBddXQqdyio11-17" value="+ usarPoder()&lt;div&gt;+ equipoNinjas()&lt;/div&gt;" style="text;strokeColor=none;fillColor=none;align=left;verticalAlign=top;spacingLeft=4;spacingRight=4;overflow=hidden;rotatable=0;points=[[0,0.5],[1,0.5]];portConstraint=eastwest;whiteSpace=wrap;html=1;" vertex="1" parent="fgH4f-6RBddXQqdyio11-14">
          <mxGeometry y="98" width="160" height="42" as="geometry" />
        </mxCell>
        <mxCell id="fgH4f-6RBddXQqdyio11-19" value="Jutsus" style="swimlane;fontStyle=1;align=center;verticalAlign=top;childLayout=stackLayout;horizontal=1;startSize=26;horizontalStack=0;resizeParent=1;resizeParentMax=0;resizeLast=0;collapsible=1;marginBottom=0;whiteSpace=wrap;html=1;" vertex="1" parent="WIyWlLk6GJQsqaUBKTNV-1">
          <mxGeometry x="380.00000000000006" y="480" width="160" height="100" as="geometry" />
        </mxCell>
        <mxCell id="fgH4f-6RBddXQqdyio11-20" value="+ nombre:string" style="text;strokeColor=none;fillColor=none;align=left;verticalAlign=top;spacingLeft=4;spacingRight=4;overflow=hidden;rotatable=0;points=[[0,0.5],[1,0.5]];portConstraint=eastwest;whiteSpace=wrap;html=1;" vertex="1" parent="fgH4f-6RBddXQqdyio11-19">
          <mxGeometry y="26" width="160" height="26" as="geometry" />
        </mxCell>
        <mxCell id="fgH4f-6RBddXQqdyio11-21" value="" style="line;strokeWidth=1;fillColor=none;align=left;verticalAlign=middle;spacingTop=-1;spacingLeft=3;spacingRight=3;rotatable=0;labelPosition=right;points=[];portConstraint=eastwest;strokeColor=inherit;" vertex="1" parent="fgH4f-6RBddXQqdyio11-19">
          <mxGeometry y="52" width="160" height="8" as="geometry" />
        </mxCell>
        <mxCell id="fgH4f-6RBddXQqdyio11-22" value="+ consumirChakra()&lt;div&gt;+ accion()&lt;/div&gt;" style="text;strokeColor=none;fillColor=none;align=left;verticalAlign=top;spacingLeft=4;spacingRight=4;overflow=hidden;rotatable=0;points=[[0,0.5],[1,0.5]];portConstraint=eastwest;whiteSpace=wrap;html=1;" vertex="1" parent="fgH4f-6RBddXQqdyio11-19">
          <mxGeometry y="60" width="160" height="40" as="geometry" />
        </mxCell>
        <mxCell id="fgH4f-6RBddXQqdyio11-23" value="" style="endArrow=diamondThin;endFill=0;endSize=24;html=1;rounded=0;fontSize=12;curved=1;" edge="1" parent="WIyWlLk6GJQsqaUBKTNV-1">
          <mxGeometry width="160" relative="1" as="geometry">
            <mxPoint x="460" y="480" as="sourcePoint" />
            <mxPoint x="459.7" y="410" as="targetPoint" />
          </mxGeometry>
        </mxCell>
      </root>
    </mxGraphModel>
  </diagram>
</mxfile>
